<?xml version="1.0" encoding="UTF-8" standalone="no"?>
<!-- Created with Inkscape (http://www.inkscape.org/) -->

<svg
   xmlns:osb="http://www.openswatchbook.org/uri/2009/osb"
   xmlns:dc="http://purl.org/dc/elements/1.1/"
   xmlns:cc="http://creativecommons.org/ns#"
   xmlns:rdf="http://www.w3.org/1999/02/22-rdf-syntax-ns#"
   xmlns:svg="http://www.w3.org/2000/svg"
   xmlns="http://www.w3.org/2000/svg"
   xmlns:sodipodi="http://sodipodi.sourceforge.net/DTD/sodipodi-0.dtd"
   xmlns:inkscape="http://www.inkscape.org/namespaces/inkscape"
   width="210mm"
   height="297mm"
   viewBox="0 0 744.09448819 1052.3622047"
   id="svg2"
   version="1.1"
   inkscape:version="0.91 r13725"
   sodipodi:docname="logo.svg"
   inkscape:export-filename="/home/jon/go/src/gitlab.com/jonas.jasas/httprelay/assets/logo.png"
   inkscape:export-xdpi="48.790051"
   inkscape:export-ydpi="48.790051">
  <defs
     id="defs4">
    <linearGradient
       inkscape:collect="always"
       id="linearGradient4424"
       osb:paint="gradient">
      <stop
         style="stop-color:#7b85ff;stop-opacity:1;"
         offset="0"
         id="stop4426" />
      <stop
         style="stop-color:#000000;stop-opacity:0;"
         offset="1"
         id="stop4428" />
    </linearGradient>
  </defs>
  <sodipodi:namedview
     id="base"
     pagecolor="#ffffff"
     bordercolor="#666666"
     borderopacity="1.0"
     inkscape:pageopacity="0.0"
     inkscape:pageshadow="2"
     inkscape:zoom="0.65407377"
     inkscape:cx="187.50151"
     inkscape:cy="592.53498"
     inkscape:document-units="px"
     inkscape:current-layer="g4215"
     showgrid="false"
     inkscape:window-width="2560"
     inkscape:window-height="1369"
     inkscape:window-x="0"
     inkscape:window-y="1080"
     inkscape:window-maximized="1"
     inkscape:connector-spacing="12" />
  <metadata
     id="metadata7">
    <rdf:RDF>
      <cc:Work
         rdf:about="">
        <dc:format>image/svg+xml</dc:format>
        <dc:type
           rdf:resource="http://purl.org/dc/dcmitype/StillImage" />
        <dc:title></dc:title>
      </cc:Work>
    </rdf:RDF>
  </metadata>
  <g
     inkscape:label="Layer 1"
     inkscape:groupmode="layer"
     id="layer1">
    <g
       id="g4215"
       transform="matrix(0.97071648,0.24022804,-0.24022804,0.97071648,156.03244,-174.96605)"
       style="display:inline">
      <g
         id="g4485"
         transform="matrix(4.4180652,-1.0933606,1.0335709,4.1764662,51.635105,291.40144)"
         inkscape:export-xdpi="73.182289"
         inkscape:export-ydpi="73.182289">
        <circle
           cx="64.199997"
           cy="13"
           r="8"
           id="circle4487" />
        <path
           inkscape:connector-curvature="0"
           d="m 83.51602,27.77908 c -2,-1 -3.140307,0.03592 -4.140307,2.035918 l -3.583979,7.775714 C 65.340222,26.661747 54.247693,20.631195 40.535918,14.273881 c -1.360849,-0.630943 -2.8,0.8 -3.5,2.1 l -8.683468,15.6951 c -1.1,1.9 -0.3,4.4 1.6,5.4 0.6,0.3 1.3,0.5 1.9,0.5 1.4,0 2.380102,-1.387857 3.080102,-2.687857 L 41.172348,22.861738 51.187346,27.480613 30.8,63 14.2,63 c -2.2,0 -4,1.8 -4,4 0,2.2 1.8,4 4,4 l 19,0 c 1.5,0 2.8,-0.8 3.5,-2.1 L 43.7,56 55.2,66.7 54.3,86.8 C 54.1,89 55.8,90.9 58,91 l 0.2,0 c 2.1,0 3.9,-1.7 4,-3.8 l 1,-22 C 63.3,64 62.8,62.9 61.9,62.1 58.134796,58.512143 46.893621,48.036172 48.924797,50.244695 L 60.132552,33.092245 73.91602,45.17908 c 0.9,0.6 2.1,0.8 3.2,0.5 1.1,-0.3 2,-1 2.5,-2 l 5.5,-10.5 c 1.1,-1.9 0.4,-4.3 -1.6,-5.4 z"
           id="path4489"
           sodipodi:nodetypes="cccccccsccccsssscccccsccccccsccc" />
      </g>
      <path
         style="opacity:1;fill:#ff0000;fill-rule:evenodd;stroke:#000000;stroke-width:0.97227341px;stroke-linecap:butt;stroke-linejoin:miter;stroke-opacity:1"
         d="m 405.84299,309.53619 c -2.34928,2.69336 -5.55195,7.11399 -1.63618,9.92074 24.58422,12.74774 49.64384,24.9272 74.36092,37.52972 4.31875,1.02194 8.98757,6.85187 13.08613,4.84044 4.73692,-3.33773 3.94176,-11.33786 -2.05803,-12.6159 -23.76088,-10.99868 -46.61296,-23.63778 -70.17462,-35.01148 -3.85857,-0.5421 -11.22595,-8.48077 -13.57822,-4.66352 z"
         id="path4502"
         inkscape:connector-curvature="0"
         sodipodi:nodetypes="ccccccc"
         inkscape:export-xdpi="73.182289"
         inkscape:export-ydpi="73.182289" />
    </g>
  </g>
</svg>